<mxfile host="app.diagrams.net" agent="Mozilla/5.0 (Windows NT 10.0; Win64; x64) AppleWebKit/537.36 (KHTML, like Gecko) Chrome/138.0.0.0 Safari/537.36 Edg/138.0.0.0" version="28.0.6" pages="4">
  <diagram name="System_Architecutre" id="ENMGv8dad7KrgkEy1tyu">
    <mxGraphModel dx="1034" dy="578" grid="1" gridSize="10" guides="1" tooltips="1" connect="1" arrows="1" fold="1" page="1" pageScale="1" pageWidth="850" pageHeight="1100" math="0" shadow="0">
      <root>
        <mxCell id="0" />
        <mxCell id="1" parent="0" />
        <mxCell id="p1zbSDZ34E3-FAL5D9sM-1" value="" style="whiteSpace=wrap;strokeWidth=2;fillColor=#f8cecc;strokeColor=#b85450;" parent="1" vertex="1">
          <mxGeometry x="424" y="1532" width="299" height="208" as="geometry" />
        </mxCell>
        <mxCell id="p1zbSDZ34E3-FAL5D9sM-2" value="" style="whiteSpace=wrap;strokeWidth=2;fillColor=#f8cecc;strokeColor=#b85450;" parent="1" vertex="1">
          <mxGeometry x="263" y="1274" width="484" height="208" as="geometry" />
        </mxCell>
        <mxCell id="p1zbSDZ34E3-FAL5D9sM-3" value="" style="whiteSpace=wrap;strokeWidth=2;fillColor=#f8cecc;strokeColor=#b85450;" parent="1" vertex="1">
          <mxGeometry x="382" y="784" width="576" height="440" as="geometry" />
        </mxCell>
        <mxCell id="p1zbSDZ34E3-FAL5D9sM-4" value="" style="whiteSpace=wrap;strokeWidth=2;fillColor=#f8cecc;strokeColor=#b85450;" parent="1" vertex="1">
          <mxGeometry x="60" y="422" width="747" height="312" as="geometry" />
        </mxCell>
        <mxCell id="p1zbSDZ34E3-FAL5D9sM-5" value="" style="whiteSpace=wrap;strokeWidth=2;fillColor=#f8cecc;strokeColor=#b85450;" parent="1" vertex="1">
          <mxGeometry x="332.5" y="60" width="482" height="312" as="geometry" />
        </mxCell>
        <mxCell id="Sr8jc393-7R0i0Jo_Oi0-1" style="edgeStyle=orthogonalEdgeStyle;rounded=0;orthogonalLoop=1;jettySize=auto;html=1;exitX=0;exitY=0.5;exitDx=0;exitDy=0;entryX=0;entryY=0.5;entryDx=0;entryDy=0;" parent="1" source="p1zbSDZ34E3-FAL5D9sM-6" target="p1zbSDZ34E3-FAL5D9sM-22" edge="1">
          <mxGeometry relative="1" as="geometry">
            <Array as="points">
              <mxPoint x="40" y="97" />
              <mxPoint x="40" y="1577" />
            </Array>
          </mxGeometry>
        </mxCell>
        <mxCell id="p1zbSDZ34E3-FAL5D9sM-6" value="Response Analysis" style="whiteSpace=wrap;strokeWidth=2;fillColor=#fff2cc;strokeColor=#d6b656;" parent="1" vertex="1">
          <mxGeometry x="495" y="70" width="186" height="54" as="geometry" />
        </mxCell>
        <mxCell id="p1zbSDZ34E3-FAL5D9sM-7" value="Mixture of Experts" style="whiteSpace=wrap;strokeWidth=2;fillColor=#fff2cc;strokeColor=#d6b656;" parent="1" vertex="1">
          <mxGeometry x="338" y="189" width="191" height="54" as="geometry" />
        </mxCell>
        <mxCell id="p1zbSDZ34E3-FAL5D9sM-8" value="LLM as Judge" style="whiteSpace=wrap;strokeWidth=2;fillColor=#fff2cc;strokeColor=#d6b656;" parent="1" vertex="1">
          <mxGeometry x="653" y="189" width="154" height="54" as="geometry" />
        </mxCell>
        <mxCell id="p1zbSDZ34E3-FAL5D9sM-9" value="Feedback Generator" style="whiteSpace=wrap;strokeWidth=2;fillColor=#fff2cc;strokeColor=#d6b656;" parent="1" vertex="1">
          <mxGeometry x="491" y="300" width="206" height="54" as="geometry" />
        </mxCell>
        <mxCell id="p1zbSDZ34E3-FAL5D9sM-10" value="Streamlit Web Interface" style="whiteSpace=wrap;strokeWidth=2;fillColor=#fff2cc;strokeColor=#d6b656;" parent="1" vertex="1">
          <mxGeometry x="95" y="655" width="232" height="54" as="geometry" />
        </mxCell>
        <mxCell id="p1zbSDZ34E3-FAL5D9sM-11" value="Interview Setup Panel" style="whiteSpace=wrap;strokeWidth=2;fillColor=#fff2cc;strokeColor=#d6b656;" parent="1" vertex="1">
          <mxGeometry x="465" y="447" width="216" height="54" as="geometry" />
        </mxCell>
        <mxCell id="p1zbSDZ34E3-FAL5D9sM-12" value="Chat Interface" style="whiteSpace=wrap;strokeWidth=2;fillColor=#fff2cc;strokeColor=#d6b656;" parent="1" vertex="1">
          <mxGeometry x="491" y="551" width="163" height="54" as="geometry" />
        </mxCell>
        <mxCell id="p1zbSDZ34E3-FAL5D9sM-13" value="Video Feed Component" style="whiteSpace=wrap;strokeWidth=2;fillColor=#fff2cc;strokeColor=#d6b656;" parent="1" vertex="1">
          <mxGeometry x="546" y="655" width="226" height="54" as="geometry" />
        </mxCell>
        <mxCell id="p1zbSDZ34E3-FAL5D9sM-14" value="OpenCV Face Detection" style="whiteSpace=wrap;strokeWidth=2;fillColor=#fff2cc;strokeColor=#d6b656;" parent="1" vertex="1">
          <mxGeometry x="545" y="809" width="229" height="54" as="geometry" />
        </mxCell>
        <mxCell id="p1zbSDZ34E3-FAL5D9sM-15" value="Posture Analysis" style="whiteSpace=wrap;strokeWidth=2;fillColor=#fff2cc;strokeColor=#d6b656;" parent="1" vertex="1">
          <mxGeometry x="439" y="925" width="174" height="54" as="geometry" />
        </mxCell>
        <mxCell id="p1zbSDZ34E3-FAL5D9sM-16" value="DeepFace Identity Verification" style="whiteSpace=wrap;strokeWidth=2;fillColor=#fff2cc;strokeColor=#d6b656;" parent="1" vertex="1">
          <mxGeometry x="663" y="913" width="260" height="78" as="geometry" />
        </mxCell>
        <mxCell id="p1zbSDZ34E3-FAL5D9sM-17" value="Pose Status Monitor" style="whiteSpace=wrap;strokeWidth=2;fillColor=#fff2cc;strokeColor=#d6b656;" parent="1" vertex="1">
          <mxGeometry x="426" y="1041" width="200" height="54" as="geometry" />
        </mxCell>
        <mxCell id="p1zbSDZ34E3-FAL5D9sM-18" value="Face Status Monitor" style="whiteSpace=wrap;strokeWidth=2;fillColor=#fff2cc;strokeColor=#d6b656;" parent="1" vertex="1">
          <mxGeometry x="692" y="1041" width="202" height="54" as="geometry" />
        </mxCell>
        <mxCell id="p1zbSDZ34E3-FAL5D9sM-19" value="Interview State Manager" style="whiteSpace=wrap;strokeWidth=2;fillColor=#fff2cc;strokeColor=#d6b656;" parent="1" vertex="1">
          <mxGeometry x="542" y="1145" width="235" height="54" as="geometry" />
        </mxCell>
        <mxCell id="p1zbSDZ34E3-FAL5D9sM-20" value="Interview Context Builder" style="whiteSpace=wrap;strokeWidth=2;fillColor=#fff2cc;strokeColor=#d6b656;" parent="1" vertex="1">
          <mxGeometry x="451" y="1299" width="244" height="54" as="geometry" />
        </mxCell>
        <mxCell id="Sr8jc393-7R0i0Jo_Oi0-2" style="edgeStyle=orthogonalEdgeStyle;rounded=0;orthogonalLoop=1;jettySize=auto;html=1;exitX=0;exitY=0.5;exitDx=0;exitDy=0;" parent="1" source="p1zbSDZ34E3-FAL5D9sM-21" edge="1">
          <mxGeometry relative="1" as="geometry">
            <mxPoint x="500.3333333333335" y="1430.3333333333335" as="targetPoint" />
          </mxGeometry>
        </mxCell>
        <mxCell id="p1zbSDZ34E3-FAL5D9sM-21" value="Gemini LLM" style="whiteSpace=wrap;strokeWidth=2;fillColor=#fff2cc;strokeColor=#d6b656;" parent="1" vertex="1">
          <mxGeometry x="501" y="1403" width="143" height="54" as="geometry" />
        </mxCell>
        <mxCell id="p1zbSDZ34E3-FAL5D9sM-22" value="AI Response Generation" style="whiteSpace=wrap;strokeWidth=2;fillColor=#fff2cc;strokeColor=#d6b656;" parent="1" vertex="1">
          <mxGeometry x="459" y="1550" width="229" height="54" as="geometry" />
        </mxCell>
        <mxCell id="p1zbSDZ34E3-FAL5D9sM-23" value="Google TTS" style="whiteSpace=wrap;strokeWidth=2;fillColor=#fff2cc;strokeColor=#d6b656;" parent="1" vertex="1">
          <mxGeometry x="503" y="1640" width="140" height="54" as="geometry" />
        </mxCell>
        <mxCell id="p1zbSDZ34E3-FAL5D9sM-24" value="" style="curved=1;startArrow=none;endArrow=block;exitX=0.19;exitY=1;entryX=0.5;entryY=0;rounded=0;" parent="1" source="p1zbSDZ34E3-FAL5D9sM-6" target="p1zbSDZ34E3-FAL5D9sM-7" edge="1">
          <mxGeometry relative="1" as="geometry">
            <Array as="points">
              <mxPoint x="462" y="164" />
            </Array>
          </mxGeometry>
        </mxCell>
        <mxCell id="p1zbSDZ34E3-FAL5D9sM-25" value="" style="curved=1;startArrow=none;endArrow=block;exitX=0.81;exitY=1;entryX=0.5;entryY=0;rounded=0;" parent="1" source="p1zbSDZ34E3-FAL5D9sM-6" target="p1zbSDZ34E3-FAL5D9sM-8" edge="1">
          <mxGeometry relative="1" as="geometry">
            <Array as="points">
              <mxPoint x="684" y="164" />
            </Array>
          </mxGeometry>
        </mxCell>
        <mxCell id="p1zbSDZ34E3-FAL5D9sM-26" value="" style="curved=1;startArrow=none;endArrow=block;exitX=0.5;exitY=1;entryX=0.22;entryY=0;rounded=0;" parent="1" source="p1zbSDZ34E3-FAL5D9sM-7" target="p1zbSDZ34E3-FAL5D9sM-9" edge="1">
          <mxGeometry relative="1" as="geometry">
            <Array as="points">
              <mxPoint x="462" y="268" />
            </Array>
          </mxGeometry>
        </mxCell>
        <mxCell id="p1zbSDZ34E3-FAL5D9sM-27" value="" style="curved=1;startArrow=none;endArrow=block;exitX=0.5;exitY=1;entryX=0.78;entryY=0;rounded=0;" parent="1" source="p1zbSDZ34E3-FAL5D9sM-8" target="p1zbSDZ34E3-FAL5D9sM-9" edge="1">
          <mxGeometry relative="1" as="geometry">
            <Array as="points">
              <mxPoint x="684" y="268" />
            </Array>
          </mxGeometry>
        </mxCell>
        <mxCell id="p1zbSDZ34E3-FAL5D9sM-28" value="" style="curved=1;startArrow=none;endArrow=block;exitX=0.5;exitY=1;entryX=0.5;entryY=0;rounded=0;" parent="1" source="p1zbSDZ34E3-FAL5D9sM-11" target="p1zbSDZ34E3-FAL5D9sM-12" edge="1">
          <mxGeometry relative="1" as="geometry">
            <Array as="points" />
          </mxGeometry>
        </mxCell>
        <mxCell id="p1zbSDZ34E3-FAL5D9sM-29" value="" style="curved=1;startArrow=none;endArrow=block;exitX=0.78;exitY=1;entryX=0.5;entryY=0;rounded=0;" parent="1" source="p1zbSDZ34E3-FAL5D9sM-12" target="p1zbSDZ34E3-FAL5D9sM-13" edge="1">
          <mxGeometry relative="1" as="geometry">
            <Array as="points">
              <mxPoint x="659" y="630" />
            </Array>
          </mxGeometry>
        </mxCell>
        <mxCell id="p1zbSDZ34E3-FAL5D9sM-30" value="" style="curved=1;startArrow=none;endArrow=block;exitX=0.2;exitY=1;entryX=0.5;entryY=0;rounded=0;" parent="1" source="p1zbSDZ34E3-FAL5D9sM-14" target="p1zbSDZ34E3-FAL5D9sM-15" edge="1">
          <mxGeometry relative="1" as="geometry">
            <Array as="points">
              <mxPoint x="526" y="888" />
            </Array>
          </mxGeometry>
        </mxCell>
        <mxCell id="p1zbSDZ34E3-FAL5D9sM-31" value="" style="curved=1;startArrow=none;endArrow=block;exitX=0.8;exitY=1;entryX=0.5;entryY=0;rounded=0;" parent="1" source="p1zbSDZ34E3-FAL5D9sM-14" target="p1zbSDZ34E3-FAL5D9sM-16" edge="1">
          <mxGeometry relative="1" as="geometry">
            <Array as="points">
              <mxPoint x="793" y="888" />
            </Array>
          </mxGeometry>
        </mxCell>
        <mxCell id="p1zbSDZ34E3-FAL5D9sM-32" value="" style="curved=1;startArrow=none;endArrow=block;exitX=0.5;exitY=1;entryX=0.5;entryY=0;rounded=0;" parent="1" source="p1zbSDZ34E3-FAL5D9sM-15" target="p1zbSDZ34E3-FAL5D9sM-17" edge="1">
          <mxGeometry relative="1" as="geometry">
            <Array as="points" />
          </mxGeometry>
        </mxCell>
        <mxCell id="p1zbSDZ34E3-FAL5D9sM-33" value="" style="curved=1;startArrow=none;endArrow=block;exitX=0.5;exitY=1;entryX=0.5;entryY=0;rounded=0;" parent="1" source="p1zbSDZ34E3-FAL5D9sM-16" target="p1zbSDZ34E3-FAL5D9sM-18" edge="1">
          <mxGeometry relative="1" as="geometry">
            <Array as="points" />
          </mxGeometry>
        </mxCell>
        <mxCell id="p1zbSDZ34E3-FAL5D9sM-34" value="" style="curved=1;startArrow=none;endArrow=block;exitX=0.5;exitY=1;entryX=0.2;entryY=0;rounded=0;" parent="1" source="p1zbSDZ34E3-FAL5D9sM-17" target="p1zbSDZ34E3-FAL5D9sM-19" edge="1">
          <mxGeometry relative="1" as="geometry">
            <Array as="points">
              <mxPoint x="526" y="1120" />
            </Array>
          </mxGeometry>
        </mxCell>
        <mxCell id="p1zbSDZ34E3-FAL5D9sM-35" value="" style="curved=1;startArrow=none;endArrow=block;exitX=0.5;exitY=1;entryX=0.79;entryY=0;rounded=0;" parent="1" source="p1zbSDZ34E3-FAL5D9sM-18" target="p1zbSDZ34E3-FAL5D9sM-19" edge="1">
          <mxGeometry relative="1" as="geometry">
            <Array as="points">
              <mxPoint x="793" y="1120" />
            </Array>
          </mxGeometry>
        </mxCell>
        <mxCell id="p1zbSDZ34E3-FAL5D9sM-36" value="" style="curved=1;startArrow=none;endArrow=block;exitX=0.5;exitY=1;entryX=0.5;entryY=0;rounded=0;" parent="1" source="p1zbSDZ34E3-FAL5D9sM-20" target="p1zbSDZ34E3-FAL5D9sM-21" edge="1">
          <mxGeometry relative="1" as="geometry">
            <Array as="points" />
          </mxGeometry>
        </mxCell>
        <mxCell id="p1zbSDZ34E3-FAL5D9sM-37" value="" style="curved=1;startArrow=none;endArrow=block;exitX=0.5;exitY=1;entryX=0.5;entryY=0;rounded=0;" parent="1" source="p1zbSDZ34E3-FAL5D9sM-22" target="p1zbSDZ34E3-FAL5D9sM-23" edge="1">
          <mxGeometry relative="1" as="geometry">
            <Array as="points" />
          </mxGeometry>
        </mxCell>
        <mxCell id="p1zbSDZ34E3-FAL5D9sM-38" value="" style="curved=1;startArrow=none;endArrow=block;exitX=0.5;exitY=1;entryX=0.5;entryY=0;rounded=0;" parent="1" source="p1zbSDZ34E3-FAL5D9sM-9" target="p1zbSDZ34E3-FAL5D9sM-11" edge="1">
          <mxGeometry relative="1" as="geometry">
            <Array as="points" />
          </mxGeometry>
        </mxCell>
        <mxCell id="p1zbSDZ34E3-FAL5D9sM-39" value="" style="curved=1;startArrow=none;endArrow=block;exitX=0;exitY=0.5;entryX=0.05;entryY=0;rounded=0;exitDx=0;exitDy=0;" parent="1" source="p1zbSDZ34E3-FAL5D9sM-12" edge="1">
          <mxGeometry relative="1" as="geometry">
            <Array as="points">
              <mxPoint x="400" y="762.02" />
              <mxPoint x="400" y="1406.02" />
            </Array>
            <mxPoint x="529" y="730" as="sourcePoint" />
            <mxPoint x="501.20000000000005" y="1431.02" as="targetPoint" />
          </mxGeometry>
        </mxCell>
        <mxCell id="p1zbSDZ34E3-FAL5D9sM-40" value="" style="curved=1;startArrow=none;endArrow=block;exitX=0.5;exitY=1;entryX=0.5;entryY=0;rounded=0;" parent="1" source="p1zbSDZ34E3-FAL5D9sM-13" target="p1zbSDZ34E3-FAL5D9sM-14" edge="1">
          <mxGeometry relative="1" as="geometry">
            <Array as="points" />
          </mxGeometry>
        </mxCell>
        <mxCell id="p1zbSDZ34E3-FAL5D9sM-41" value="" style="curved=1;startArrow=none;endArrow=block;exitX=0.5;exitY=1;entryX=0.68;entryY=0;rounded=0;" parent="1" source="p1zbSDZ34E3-FAL5D9sM-19" target="p1zbSDZ34E3-FAL5D9sM-20" edge="1">
          <mxGeometry relative="1" as="geometry">
            <Array as="points">
              <mxPoint x="659" y="1274" />
            </Array>
          </mxGeometry>
        </mxCell>
        <mxCell id="p1zbSDZ34E3-FAL5D9sM-42" value="" style="curved=1;startArrow=none;endArrow=block;exitX=0.5;exitY=1;entryX=0.5;entryY=0;rounded=0;" parent="1" source="p1zbSDZ34E3-FAL5D9sM-21" target="p1zbSDZ34E3-FAL5D9sM-22" edge="1">
          <mxGeometry relative="1" as="geometry">
            <Array as="points" />
          </mxGeometry>
        </mxCell>
        <mxCell id="p1zbSDZ34E3-FAL5D9sM-43" value="&lt;span style=&quot;color: rgb(0, 0, 0); font-family: Helvetica; font-size: 12px; font-style: normal; font-variant-ligatures: normal; font-variant-caps: normal; font-weight: 400; letter-spacing: normal; orphans: 2; text-align: center; text-indent: 0px; text-transform: none; widows: 2; word-spacing: 0px; -webkit-text-stroke-width: 0px; white-space: normal; background-color: rgb(236, 236, 236); text-decoration-thickness: initial; text-decoration-style: initial; text-decoration-color: initial; display: inline !important; float: none;&quot;&gt;User_Interface&lt;/span&gt;" style="text;whiteSpace=wrap;html=1;" parent="1" vertex="1">
          <mxGeometry x="80" y="447" width="110" height="40" as="geometry" />
        </mxCell>
        <mxCell id="p1zbSDZ34E3-FAL5D9sM-44" value="&lt;span style=&quot;color: rgb(0, 0, 0); font-family: Helvetica; font-size: 12px; font-style: normal; font-variant-ligatures: normal; font-variant-caps: normal; font-weight: 400; letter-spacing: normal; orphans: 2; text-align: center; text-indent: 0px; text-transform: none; widows: 2; word-spacing: 0px; -webkit-text-stroke-width: 0px; white-space: normal; background-color: rgb(236, 236, 236); text-decoration-thickness: initial; text-decoration-style: initial; text-decoration-color: initial; display: inline !important; float: none;&quot;&gt;Evaluation_System&lt;/span&gt;" style="text;whiteSpace=wrap;html=1;" parent="1" vertex="1">
          <mxGeometry x="529" y="160" width="140" height="40" as="geometry" />
        </mxCell>
        <mxCell id="p1zbSDZ34E3-FAL5D9sM-45" value="&lt;span style=&quot;color: rgb(0, 0, 0); font-family: Helvetica; font-size: 12px; font-style: normal; font-variant-ligatures: normal; font-variant-caps: normal; font-weight: 400; letter-spacing: normal; orphans: 2; text-align: center; text-indent: 0px; text-transform: none; widows: 2; word-spacing: 0px; -webkit-text-stroke-width: 0px; white-space: normal; background-color: rgb(236, 236, 236); text-decoration-thickness: initial; text-decoration-style: initial; text-decoration-color: initial; display: inline !important; float: none;&quot;&gt;Face_Processing&lt;/span&gt;" style="text;whiteSpace=wrap;html=1;" parent="1" vertex="1">
          <mxGeometry x="807" y="1170" width="130" height="40" as="geometry" />
        </mxCell>
        <mxCell id="p1zbSDZ34E3-FAL5D9sM-46" value="&lt;span style=&quot;color: rgb(0, 0, 0); font-family: Helvetica; font-size: 12px; font-style: normal; font-variant-ligatures: normal; font-variant-caps: normal; font-weight: 400; letter-spacing: normal; orphans: 2; text-align: center; text-indent: 0px; text-transform: none; widows: 2; word-spacing: 0px; -webkit-text-stroke-width: 0px; white-space: normal; background-color: rgb(236, 236, 236); text-decoration-thickness: initial; text-decoration-style: initial; text-decoration-color: initial; display: inline !important; float: none;&quot;&gt;Interview_Engine&lt;/span&gt;" style="text;whiteSpace=wrap;html=1;" parent="1" vertex="1">
          <mxGeometry x="280" y="1442" width="130" height="40" as="geometry" />
        </mxCell>
        <mxCell id="p1zbSDZ34E3-FAL5D9sM-47" value="&lt;span style=&quot;color: rgb(0, 0, 0); font-family: Helvetica; font-size: 12px; font-style: normal; font-variant-ligatures: normal; font-variant-caps: normal; font-weight: 400; letter-spacing: normal; orphans: 2; text-align: center; text-indent: 0px; text-transform: none; widows: 2; word-spacing: 0px; -webkit-text-stroke-width: 0px; white-space: normal; background-color: rgb(236, 236, 236); text-decoration-thickness: initial; text-decoration-style: initial; text-decoration-color: initial; display: inline !important; float: none;&quot;&gt;AI_Response_Generation&lt;/span&gt;" style="text;whiteSpace=wrap;html=1;" parent="1" vertex="1">
          <mxGeometry x="503" y="1715" width="170" height="40" as="geometry" />
        </mxCell>
      </root>
    </mxGraphModel>
  </diagram>
  <diagram name="Response_Process_And_Evals" id="FcnMHLv8LdkCK3MtX5YI">
    <mxGraphModel dx="1034" dy="578" grid="1" gridSize="10" guides="1" tooltips="1" connect="1" arrows="1" fold="1" page="1" pageScale="1" pageWidth="850" pageHeight="1100" math="0" shadow="0">
      <root>
        <mxCell id="0" />
        <mxCell id="1" parent="0" />
        <mxCell id="-xtw1gE0njcOEP-wehNx-1" value="" style="whiteSpace=wrap;strokeWidth=2;fillColor=#fff2cc;strokeColor=#d6b656;" parent="1" vertex="1">
          <mxGeometry x="27" y="872" width="796" height="416" as="geometry" />
        </mxCell>
        <mxCell id="-xtw1gE0njcOEP-wehNx-2" value="" style="whiteSpace=wrap;strokeWidth=2;fillColor=#fff2cc;strokeColor=#d6b656;" parent="1" vertex="1">
          <mxGeometry x="20" y="382" width="842" height="440" as="geometry" />
        </mxCell>
        <mxCell id="-xtw1gE0njcOEP-wehNx-3" value="" style="whiteSpace=wrap;strokeWidth=2;fillColor=#fff2cc;strokeColor=#d6b656;" parent="1" vertex="1">
          <mxGeometry x="267.75" y="30" width="288.5" height="320" as="geometry" />
        </mxCell>
        <mxCell id="-xtw1gE0njcOEP-wehNx-4" value="User Response Input" style="whiteSpace=wrap;strokeWidth=2;fillColor=#f5f5f5;fontColor=#333333;strokeColor=#666666;" parent="1" vertex="1">
          <mxGeometry x="310" y="70" width="204" height="54" as="geometry" />
        </mxCell>
        <mxCell id="-xtw1gE0njcOEP-wehNx-5" value="Response Collection" style="whiteSpace=wrap;strokeWidth=2;fillColor=#f5f5f5;fontColor=#333333;strokeColor=#666666;" parent="1" vertex="1">
          <mxGeometry x="310" y="180" width="203" height="54" as="geometry" />
        </mxCell>
        <mxCell id="-xtw1gE0njcOEP-wehNx-6" value="Context Building" style="whiteSpace=wrap;strokeWidth=2;fillColor=#f5f5f5;fontColor=#333333;strokeColor=#666666;" parent="1" vertex="1">
          <mxGeometry x="322" y="280" width="178" height="54" as="geometry" />
        </mxCell>
        <mxCell id="-xtw1gE0njcOEP-wehNx-7" value="Parallel Evaluation" style="whiteSpace=wrap;strokeWidth=2;fillColor=#f5f5f5;fontColor=#333333;strokeColor=#666666;" parent="1" vertex="1">
          <mxGeometry x="314" y="407" width="194" height="54" as="geometry" />
        </mxCell>
        <mxCell id="-xtw1gE0njcOEP-wehNx-8" value="LLM as Judge" style="whiteSpace=wrap;strokeWidth=2;fillColor=#f5f5f5;fontColor=#333333;strokeColor=#666666;" parent="1" vertex="1">
          <mxGeometry x="71" y="523" width="154" height="54" as="geometry" />
        </mxCell>
        <mxCell id="-xtw1gE0njcOEP-wehNx-9" value="Domain Expert Model" style="whiteSpace=wrap;strokeWidth=2;fillColor=#f5f5f5;fontColor=#333333;strokeColor=#666666;" parent="1" vertex="1">
          <mxGeometry x="305" y="523" width="212" height="54" as="geometry" />
        </mxCell>
        <mxCell id="-xtw1gE0njcOEP-wehNx-10" value="Communication Expert Model" style="whiteSpace=wrap;strokeWidth=2;fillColor=#f5f5f5;fontColor=#333333;strokeColor=#666666;" parent="1" vertex="1">
          <mxGeometry x="567" y="511" width="260" height="78" as="geometry" />
        </mxCell>
        <mxCell id="-xtw1gE0njcOEP-wehNx-11" value="Content Scoring" style="whiteSpace=wrap;strokeWidth=2;fillColor=#f5f5f5;fontColor=#333333;strokeColor=#666666;" parent="1" vertex="1">
          <mxGeometry x="62" y="639" width="174" height="54" as="geometry" />
        </mxCell>
        <mxCell id="-xtw1gE0njcOEP-wehNx-12" value="Technical Accuracy Scoring" style="whiteSpace=wrap;strokeWidth=2;fillColor=#f5f5f5;fontColor=#333333;strokeColor=#666666;" parent="1" vertex="1">
          <mxGeometry x="285" y="639" width="252" height="54" as="geometry" />
        </mxCell>
        <mxCell id="-xtw1gE0njcOEP-wehNx-13" value="Delivery Scoring" style="whiteSpace=wrap;strokeWidth=2;fillColor=#f5f5f5;fontColor=#333333;strokeColor=#666666;" parent="1" vertex="1">
          <mxGeometry x="610" y="639" width="175" height="54" as="geometry" />
        </mxCell>
        <mxCell id="-xtw1gE0njcOEP-wehNx-14" value="Weighted Scoring Model" style="whiteSpace=wrap;strokeWidth=2;fillColor=#f5f5f5;fontColor=#333333;strokeColor=#666666;" parent="1" vertex="1">
          <mxGeometry x="296" y="743" width="231" height="54" as="geometry" />
        </mxCell>
        <mxCell id="-xtw1gE0njcOEP-wehNx-15" value="Feedback Composition" style="whiteSpace=wrap;strokeWidth=2;fillColor=#f5f5f5;fontColor=#333333;strokeColor=#666666;" parent="1" vertex="1">
          <mxGeometry x="301" y="897" width="221" height="54" as="geometry" />
        </mxCell>
        <mxCell id="-xtw1gE0njcOEP-wehNx-16" value="Strengths Analysis" style="whiteSpace=wrap;strokeWidth=2;fillColor=#f5f5f5;fontColor=#333333;strokeColor=#666666;" parent="1" vertex="1">
          <mxGeometry x="75" y="1001" width="188" height="54" as="geometry" />
        </mxCell>
        <mxCell id="-xtw1gE0njcOEP-wehNx-17" value="Weaknesses Analysis" style="whiteSpace=wrap;strokeWidth=2;fillColor=#f5f5f5;fontColor=#333333;strokeColor=#666666;" parent="1" vertex="1">
          <mxGeometry x="313" y="1001" width="204" height="54" as="geometry" />
        </mxCell>
        <mxCell id="-xtw1gE0njcOEP-wehNx-18" value="Suggestion Generation" style="whiteSpace=wrap;strokeWidth=2;fillColor=#f5f5f5;fontColor=#333333;strokeColor=#666666;" parent="1" vertex="1">
          <mxGeometry x="568" y="1001" width="221" height="54" as="geometry" />
        </mxCell>
        <mxCell id="-xtw1gE0njcOEP-wehNx-19" value="Formatted Feedback" style="whiteSpace=wrap;strokeWidth=2;fillColor=#f5f5f5;fontColor=#333333;strokeColor=#666666;" parent="1" vertex="1">
          <mxGeometry x="299" y="1105" width="208" height="54" as="geometry" />
        </mxCell>
        <mxCell id="-xtw1gE0njcOEP-wehNx-20" value="Display to User" style="whiteSpace=wrap;strokeWidth=2;fillColor=#f5f5f5;fontColor=#333333;strokeColor=#666666;" parent="1" vertex="1">
          <mxGeometry x="320" y="1209" width="167" height="54" as="geometry" />
        </mxCell>
        <mxCell id="-xtw1gE0njcOEP-wehNx-21" value="" style="curved=1;startArrow=none;endArrow=block;exitX=0.5;exitY=1;entryX=0.5;entryY=0;rounded=0;" parent="1" source="-xtw1gE0njcOEP-wehNx-4" target="-xtw1gE0njcOEP-wehNx-5" edge="1">
          <mxGeometry relative="1" as="geometry">
            <Array as="points" />
          </mxGeometry>
        </mxCell>
        <mxCell id="-xtw1gE0njcOEP-wehNx-22" value="" style="curved=1;startArrow=none;endArrow=block;exitX=0.5;exitY=1;entryX=0.5;entryY=0;rounded=0;" parent="1" source="-xtw1gE0njcOEP-wehNx-5" target="-xtw1gE0njcOEP-wehNx-6" edge="1">
          <mxGeometry relative="1" as="geometry">
            <Array as="points" />
          </mxGeometry>
        </mxCell>
        <mxCell id="-xtw1gE0njcOEP-wehNx-23" value="" style="curved=1;startArrow=none;endArrow=block;exitX=0;exitY=0.87;entryX=0.5;entryY=0;rounded=0;" parent="1" source="-xtw1gE0njcOEP-wehNx-7" target="-xtw1gE0njcOEP-wehNx-8" edge="1">
          <mxGeometry relative="1" as="geometry">
            <Array as="points">
              <mxPoint x="148" y="486" />
            </Array>
          </mxGeometry>
        </mxCell>
        <mxCell id="-xtw1gE0njcOEP-wehNx-24" value="" style="curved=1;startArrow=none;endArrow=block;exitX=0.52;exitY=1;entryX=0.5;entryY=0;rounded=0;" parent="1" source="-xtw1gE0njcOEP-wehNx-7" target="-xtw1gE0njcOEP-wehNx-9" edge="1">
          <mxGeometry relative="1" as="geometry">
            <Array as="points">
              <mxPoint x="411" y="486" />
            </Array>
          </mxGeometry>
        </mxCell>
        <mxCell id="-xtw1gE0njcOEP-wehNx-25" value="" style="curved=1;startArrow=none;endArrow=block;exitX=1;exitY=0.82;entryX=0.5;entryY=0;rounded=0;" parent="1" source="-xtw1gE0njcOEP-wehNx-7" target="-xtw1gE0njcOEP-wehNx-10" edge="1">
          <mxGeometry relative="1" as="geometry">
            <Array as="points">
              <mxPoint x="697" y="486" />
            </Array>
          </mxGeometry>
        </mxCell>
        <mxCell id="-xtw1gE0njcOEP-wehNx-26" value="" style="curved=1;startArrow=none;endArrow=block;exitX=0.5;exitY=1;entryX=0.5;entryY=0;rounded=0;" parent="1" source="-xtw1gE0njcOEP-wehNx-8" target="-xtw1gE0njcOEP-wehNx-11" edge="1">
          <mxGeometry relative="1" as="geometry">
            <Array as="points" />
          </mxGeometry>
        </mxCell>
        <mxCell id="-xtw1gE0njcOEP-wehNx-27" value="" style="curved=1;startArrow=none;endArrow=block;exitX=0.5;exitY=1;entryX=0.5;entryY=0;rounded=0;" parent="1" source="-xtw1gE0njcOEP-wehNx-9" target="-xtw1gE0njcOEP-wehNx-12" edge="1">
          <mxGeometry relative="1" as="geometry">
            <Array as="points" />
          </mxGeometry>
        </mxCell>
        <mxCell id="-xtw1gE0njcOEP-wehNx-28" value="" style="curved=1;startArrow=none;endArrow=block;exitX=0.5;exitY=1;entryX=0.5;entryY=0;rounded=0;" parent="1" source="-xtw1gE0njcOEP-wehNx-10" target="-xtw1gE0njcOEP-wehNx-13" edge="1">
          <mxGeometry relative="1" as="geometry">
            <Array as="points" />
          </mxGeometry>
        </mxCell>
        <mxCell id="-xtw1gE0njcOEP-wehNx-29" value="" style="curved=1;startArrow=none;endArrow=block;exitX=0.5;exitY=1;entryX=0;entryY=0.08;rounded=0;" parent="1" source="-xtw1gE0njcOEP-wehNx-11" target="-xtw1gE0njcOEP-wehNx-14" edge="1">
          <mxGeometry relative="1" as="geometry">
            <Array as="points">
              <mxPoint x="148" y="718" />
            </Array>
          </mxGeometry>
        </mxCell>
        <mxCell id="-xtw1gE0njcOEP-wehNx-30" value="" style="curved=1;startArrow=none;endArrow=block;exitX=0.5;exitY=1;entryX=0.5;entryY=0;rounded=0;" parent="1" source="-xtw1gE0njcOEP-wehNx-12" target="-xtw1gE0njcOEP-wehNx-14" edge="1">
          <mxGeometry relative="1" as="geometry">
            <Array as="points" />
          </mxGeometry>
        </mxCell>
        <mxCell id="-xtw1gE0njcOEP-wehNx-31" value="" style="curved=1;startArrow=none;endArrow=block;exitX=0.5;exitY=1;entryX=1;entryY=0.11;rounded=0;" parent="1" source="-xtw1gE0njcOEP-wehNx-13" target="-xtw1gE0njcOEP-wehNx-14" edge="1">
          <mxGeometry relative="1" as="geometry">
            <Array as="points">
              <mxPoint x="697" y="718" />
            </Array>
          </mxGeometry>
        </mxCell>
        <mxCell id="-xtw1gE0njcOEP-wehNx-32" value="" style="curved=1;startArrow=none;endArrow=block;exitX=0;exitY=0.94;entryX=0.5;entryY=0;rounded=0;" parent="1" source="-xtw1gE0njcOEP-wehNx-15" target="-xtw1gE0njcOEP-wehNx-16" edge="1">
          <mxGeometry relative="1" as="geometry">
            <Array as="points">
              <mxPoint x="169" y="976" />
            </Array>
          </mxGeometry>
        </mxCell>
        <mxCell id="-xtw1gE0njcOEP-wehNx-33" value="" style="curved=1;startArrow=none;endArrow=block;exitX=0.51;exitY=1;entryX=0.5;entryY=0;rounded=0;" parent="1" source="-xtw1gE0njcOEP-wehNx-15" target="-xtw1gE0njcOEP-wehNx-17" edge="1">
          <mxGeometry relative="1" as="geometry">
            <Array as="points">
              <mxPoint x="416" y="976" />
            </Array>
          </mxGeometry>
        </mxCell>
        <mxCell id="-xtw1gE0njcOEP-wehNx-34" value="" style="curved=1;startArrow=none;endArrow=block;exitX=1;exitY=0.9;entryX=0.5;entryY=0;rounded=0;" parent="1" source="-xtw1gE0njcOEP-wehNx-15" target="-xtw1gE0njcOEP-wehNx-18" edge="1">
          <mxGeometry relative="1" as="geometry">
            <Array as="points">
              <mxPoint x="678" y="976" />
            </Array>
          </mxGeometry>
        </mxCell>
        <mxCell id="-xtw1gE0njcOEP-wehNx-35" value="" style="curved=1;startArrow=none;endArrow=block;exitX=0.5;exitY=1;entryX=0;entryY=0.07;rounded=0;" parent="1" source="-xtw1gE0njcOEP-wehNx-16" target="-xtw1gE0njcOEP-wehNx-19" edge="1">
          <mxGeometry relative="1" as="geometry">
            <Array as="points">
              <mxPoint x="169" y="1080" />
            </Array>
          </mxGeometry>
        </mxCell>
        <mxCell id="-xtw1gE0njcOEP-wehNx-36" value="" style="curved=1;startArrow=none;endArrow=block;exitX=0.5;exitY=1;entryX=0.53;entryY=0;rounded=0;" parent="1" source="-xtw1gE0njcOEP-wehNx-17" target="-xtw1gE0njcOEP-wehNx-19" edge="1">
          <mxGeometry relative="1" as="geometry">
            <Array as="points">
              <mxPoint x="416" y="1080" />
            </Array>
          </mxGeometry>
        </mxCell>
        <mxCell id="-xtw1gE0njcOEP-wehNx-37" value="" style="curved=1;startArrow=none;endArrow=block;exitX=0.5;exitY=1;entryX=1;entryY=0.14;rounded=0;" parent="1" source="-xtw1gE0njcOEP-wehNx-18" target="-xtw1gE0njcOEP-wehNx-19" edge="1">
          <mxGeometry relative="1" as="geometry">
            <Array as="points">
              <mxPoint x="678" y="1080" />
            </Array>
          </mxGeometry>
        </mxCell>
        <mxCell id="-xtw1gE0njcOEP-wehNx-38" value="" style="curved=1;startArrow=none;endArrow=block;exitX=0.5;exitY=1;entryX=0.5;entryY=0;rounded=0;" parent="1" source="-xtw1gE0njcOEP-wehNx-19" target="-xtw1gE0njcOEP-wehNx-20" edge="1">
          <mxGeometry relative="1" as="geometry">
            <Array as="points" />
          </mxGeometry>
        </mxCell>
        <mxCell id="-xtw1gE0njcOEP-wehNx-39" value="" style="curved=1;startArrow=none;endArrow=block;exitX=0.5;exitY=1;entryX=0.5;entryY=0;rounded=0;" parent="1" source="-xtw1gE0njcOEP-wehNx-6" target="-xtw1gE0njcOEP-wehNx-7" edge="1">
          <mxGeometry relative="1" as="geometry">
            <Array as="points" />
          </mxGeometry>
        </mxCell>
        <mxCell id="-xtw1gE0njcOEP-wehNx-40" value="" style="curved=1;startArrow=none;endArrow=block;exitX=0.5;exitY=1;entryX=0.5;entryY=0;rounded=0;" parent="1" source="-xtw1gE0njcOEP-wehNx-14" target="-xtw1gE0njcOEP-wehNx-15" edge="1">
          <mxGeometry relative="1" as="geometry">
            <Array as="points" />
          </mxGeometry>
        </mxCell>
        <mxCell id="-xtw1gE0njcOEP-wehNx-41" value="&lt;span style=&quot;color: rgb(0, 0, 0); font-family: Helvetica; font-size: 12px; font-style: normal; font-variant-ligatures: normal; font-variant-caps: normal; font-weight: 400; letter-spacing: normal; orphans: 2; text-align: center; text-indent: 0px; text-transform: none; widows: 2; word-spacing: 0px; -webkit-text-stroke-width: 0px; white-space: normal; background-color: rgb(236, 236, 236); text-decoration-thickness: initial; text-decoration-style: initial; text-decoration-color: initial; display: inline !important; float: none;&quot;&gt;User Response Processing&lt;/span&gt;" style="text;whiteSpace=wrap;html=1;" parent="1" vertex="1">
          <mxGeometry x="328" y="40" width="180" height="40" as="geometry" />
        </mxCell>
        <mxCell id="-xtw1gE0njcOEP-wehNx-42" value="&lt;span style=&quot;color: rgb(0, 0, 0); font-family: Helvetica; font-size: 12px; font-style: normal; font-variant-ligatures: normal; font-variant-caps: normal; font-weight: 400; letter-spacing: normal; orphans: 2; text-align: center; text-indent: 0px; text-transform: none; widows: 2; word-spacing: 0px; -webkit-text-stroke-width: 0px; white-space: normal; background-color: rgb(236, 236, 236); text-decoration-thickness: initial; text-decoration-style: initial; text-decoration-color: initial; display: inline !important; float: none;&quot;&gt;Multi-faceted Evaluation System&lt;/span&gt;" style="text;whiteSpace=wrap;html=1;" parent="1" vertex="1">
          <mxGeometry x="660" y="400" width="200" height="40" as="geometry" />
        </mxCell>
        <mxCell id="-xtw1gE0njcOEP-wehNx-43" value="&lt;span style=&quot;color: rgb(0, 0, 0); font-family: Helvetica; font-size: 12px; font-style: normal; font-variant-ligatures: normal; font-variant-caps: normal; font-weight: 400; letter-spacing: normal; orphans: 2; text-align: center; text-indent: 0px; text-transform: none; widows: 2; word-spacing: 0px; -webkit-text-stroke-width: 0px; white-space: normal; background-color: rgb(236, 236, 236); text-decoration-thickness: initial; text-decoration-style: initial; text-decoration-color: initial; display: inline !important; float: none;&quot;&gt;Feedback Generation&lt;/span&gt;" style="text;whiteSpace=wrap;html=1;" parent="1" vertex="1">
          <mxGeometry x="650" y="904" width="150" height="40" as="geometry" />
        </mxCell>
      </root>
    </mxGraphModel>
  </diagram>
  <diagram id="QymbLOWfzacQx4Mv-OgN" name="EXPERT_EVALS_FLOW">
    <mxGraphModel dx="1034" dy="578" grid="1" gridSize="10" guides="1" tooltips="1" connect="1" arrows="1" fold="1" page="1" pageScale="1" pageWidth="850" pageHeight="1100" math="0" shadow="0">
      <root>
        <mxCell id="0" />
        <mxCell id="1" parent="0" />
        <mxCell id="SyXM5z92ipnjerzkg1In-1" value="Expert Evaluators" style="whiteSpace=wrap;strokeWidth=2;fillColor=#dae8fc;strokeColor=#6c8ebf;" parent="1" vertex="1">
          <mxGeometry x="51" y="124" width="1476" height="104" as="geometry" />
        </mxCell>
        <mxCell id="SyXM5z92ipnjerzkg1In-2" value="User Response R" style="whiteSpace=wrap;strokeWidth=2;fillColor=#e1d5e7;strokeColor=#9673a6;" parent="1" vertex="1">
          <mxGeometry x="442" y="20" width="176" height="54" as="geometry" />
        </mxCell>
        <mxCell id="SyXM5z92ipnjerzkg1In-3" value="Interview Context C" style="whiteSpace=wrap;strokeWidth=2;fillColor=#e1d5e7;strokeColor=#9673a6;" parent="1" vertex="1">
          <mxGeometry x="967" y="20" width="203" height="54" as="geometry" />
        </mxCell>
        <mxCell id="SyXM5z92ipnjerzkg1In-4" value="Domain Expert E1" style="whiteSpace=wrap;strokeWidth=2;fillColor=#e1d5e7;strokeColor=#9673a6;" parent="1" vertex="1">
          <mxGeometry x="167" y="149" width="187" height="54" as="geometry" />
        </mxCell>
        <mxCell id="SyXM5z92ipnjerzkg1In-5" value="Communication Expert E2" style="whiteSpace=wrap;strokeWidth=2;fillColor=#e1d5e7;strokeColor=#9673a6;" parent="1" vertex="1">
          <mxGeometry x="677" y="149" width="245" height="54" as="geometry" />
        </mxCell>
        <mxCell id="SyXM5z92ipnjerzkg1In-6" value="LLM Judge E3" style="whiteSpace=wrap;strokeWidth=2;fillColor=#e1d5e7;strokeColor=#9673a6;" parent="1" vertex="1">
          <mxGeometry x="1258" y="149" width="156" height="54" as="geometry" />
        </mxCell>
        <mxCell id="SyXM5z92ipnjerzkg1In-7" value="Technical Score (s1, c1)" style="whiteSpace=wrap;strokeWidth=2;fillColor=#e1d5e7;strokeColor=#9673a6;" parent="1" vertex="1">
          <mxGeometry x="20" y="290" width="229" height="54" as="geometry" />
        </mxCell>
        <mxCell id="SyXM5z92ipnjerzkg1In-8" value="Accuracy Metric" style="whiteSpace=wrap;strokeWidth=2;fillColor=#e1d5e7;strokeColor=#9673a6;" parent="1" vertex="1">
          <mxGeometry x="299" y="290" width="174" height="54" as="geometry" />
        </mxCell>
        <mxCell id="SyXM5z92ipnjerzkg1In-9" value="Communication Score (s2, c2)" style="whiteSpace=wrap;strokeWidth=2;fillColor=#e1d5e7;strokeColor=#9673a6;" parent="1" vertex="1">
          <mxGeometry x="524" y="278" width="260" height="78" as="geometry" />
        </mxCell>
        <mxCell id="SyXM5z92ipnjerzkg1In-10" value="Communication Metric" style="whiteSpace=wrap;strokeWidth=2;fillColor=#e1d5e7;strokeColor=#9673a6;" parent="1" vertex="1">
          <mxGeometry x="834" y="290" width="221" height="54" as="geometry" />
        </mxCell>
        <mxCell id="SyXM5z92ipnjerzkg1In-11" value="Overall Score (s3, c3)" style="whiteSpace=wrap;strokeWidth=2;fillColor=#e1d5e7;strokeColor=#9673a6;" parent="1" vertex="1">
          <mxGeometry x="1105" y="290" width="214" height="54" as="geometry" />
        </mxCell>
        <mxCell id="SyXM5z92ipnjerzkg1In-12" value="Relevance Metric" style="whiteSpace=wrap;strokeWidth=2;fillColor=#e1d5e7;strokeColor=#9673a6;" parent="1" vertex="1">
          <mxGeometry x="1369" y="290" width="182" height="54" as="geometry" />
        </mxCell>
        <mxCell id="SyXM5z92ipnjerzkg1In-13" value="Weight Calculation" style="whiteSpace=wrap;strokeWidth=2;fillColor=#e1d5e7;strokeColor=#9673a6;" parent="1" vertex="1">
          <mxGeometry x="556" y="406" width="195" height="54" as="geometry" />
        </mxCell>
        <mxCell id="SyXM5z92ipnjerzkg1In-14" value="Final Score: S(R) = Σ wi · si" style="whiteSpace=wrap;strokeWidth=2;fillColor=#e1d5e7;strokeColor=#9673a6;" parent="1" vertex="1">
          <mxGeometry x="527" y="510" width="253" height="54" as="geometry" />
        </mxCell>
        <mxCell id="SyXM5z92ipnjerzkg1In-15" value="" style="curved=1;startArrow=none;endArrow=block;exitX=0;exitY=0.71;entryX=0.15;entryY=0;rounded=0;" parent="1" source="SyXM5z92ipnjerzkg1In-2" target="SyXM5z92ipnjerzkg1In-4" edge="1">
          <mxGeometry relative="1" as="geometry">
            <Array as="points">
              <mxPoint x="135" y="99" />
              <mxPoint x="135" y="124" />
            </Array>
          </mxGeometry>
        </mxCell>
        <mxCell id="SyXM5z92ipnjerzkg1In-16" value="" style="curved=1;startArrow=none;endArrow=block;exitX=0;exitY=0.68;entryX=1;entryY=0.14;rounded=0;" parent="1" source="SyXM5z92ipnjerzkg1In-3" target="SyXM5z92ipnjerzkg1In-4" edge="1">
          <mxGeometry relative="1" as="geometry">
            <Array as="points">
              <mxPoint x="510" y="99" />
              <mxPoint x="510" y="124" />
            </Array>
          </mxGeometry>
        </mxCell>
        <mxCell id="SyXM5z92ipnjerzkg1In-17" value="" style="curved=1;startArrow=none;endArrow=block;exitX=0.5;exitY=1;entryX=0;entryY=0.06;rounded=0;" parent="1" source="SyXM5z92ipnjerzkg1In-2" target="SyXM5z92ipnjerzkg1In-5" edge="1">
          <mxGeometry relative="1" as="geometry">
            <Array as="points">
              <mxPoint x="530" y="124" />
            </Array>
          </mxGeometry>
        </mxCell>
        <mxCell id="SyXM5z92ipnjerzkg1In-18" value="" style="curved=1;startArrow=none;endArrow=block;exitX=0.5;exitY=1;entryX=1;entryY=0.06;rounded=0;" parent="1" source="SyXM5z92ipnjerzkg1In-3" target="SyXM5z92ipnjerzkg1In-5" edge="1">
          <mxGeometry relative="1" as="geometry">
            <Array as="points">
              <mxPoint x="1068" y="124" />
            </Array>
          </mxGeometry>
        </mxCell>
        <mxCell id="SyXM5z92ipnjerzkg1In-19" value="" style="curved=1;startArrow=none;endArrow=block;exitX=1;exitY=0.65;entryX=0;entryY=0.2;rounded=0;" parent="1" source="SyXM5z92ipnjerzkg1In-2" target="SyXM5z92ipnjerzkg1In-6" edge="1">
          <mxGeometry relative="1" as="geometry">
            <Array as="points">
              <mxPoint x="1088" y="99" />
              <mxPoint x="1088" y="124" />
            </Array>
          </mxGeometry>
        </mxCell>
        <mxCell id="SyXM5z92ipnjerzkg1In-20" value="" style="curved=1;startArrow=none;endArrow=block;exitX=1;exitY=0.75;entryX=0.91;entryY=0;rounded=0;" parent="1" source="SyXM5z92ipnjerzkg1In-3" target="SyXM5z92ipnjerzkg1In-6" edge="1">
          <mxGeometry relative="1" as="geometry">
            <Array as="points">
              <mxPoint x="1460" y="99" />
              <mxPoint x="1460" y="124" />
            </Array>
          </mxGeometry>
        </mxCell>
        <mxCell id="SyXM5z92ipnjerzkg1In-21" value="" style="curved=1;startArrow=none;endArrow=block;exitX=0.15;exitY=1;entryX=0.5;entryY=0;rounded=0;" parent="1" source="SyXM5z92ipnjerzkg1In-4" target="SyXM5z92ipnjerzkg1In-7" edge="1">
          <mxGeometry relative="1" as="geometry">
            <Array as="points">
              <mxPoint x="135" y="228" />
            </Array>
          </mxGeometry>
        </mxCell>
        <mxCell id="SyXM5z92ipnjerzkg1In-22" value="" style="curved=1;startArrow=none;endArrow=block;exitX=0.85;exitY=1;entryX=0.5;entryY=0;rounded=0;" parent="1" source="SyXM5z92ipnjerzkg1In-4" target="SyXM5z92ipnjerzkg1In-8" edge="1">
          <mxGeometry relative="1" as="geometry">
            <Array as="points">
              <mxPoint x="387" y="228" />
            </Array>
          </mxGeometry>
        </mxCell>
        <mxCell id="SyXM5z92ipnjerzkg1In-23" value="" style="curved=1;startArrow=none;endArrow=block;exitX=0.19;exitY=1;entryX=0.5;entryY=0;rounded=0;" parent="1" source="SyXM5z92ipnjerzkg1In-5" target="SyXM5z92ipnjerzkg1In-9" edge="1">
          <mxGeometry relative="1" as="geometry">
            <Array as="points">
              <mxPoint x="654" y="228" />
            </Array>
          </mxGeometry>
        </mxCell>
        <mxCell id="SyXM5z92ipnjerzkg1In-24" value="" style="curved=1;startArrow=none;endArrow=block;exitX=0.81;exitY=1;entryX=0.5;entryY=0;rounded=0;" parent="1" source="SyXM5z92ipnjerzkg1In-5" target="SyXM5z92ipnjerzkg1In-10" edge="1">
          <mxGeometry relative="1" as="geometry">
            <Array as="points">
              <mxPoint x="945" y="228" />
            </Array>
          </mxGeometry>
        </mxCell>
        <mxCell id="SyXM5z92ipnjerzkg1In-25" value="" style="curved=1;startArrow=none;endArrow=block;exitX=0.09;exitY=1;entryX=0.5;entryY=0;rounded=0;" parent="1" source="SyXM5z92ipnjerzkg1In-6" target="SyXM5z92ipnjerzkg1In-11" edge="1">
          <mxGeometry relative="1" as="geometry">
            <Array as="points">
              <mxPoint x="1212" y="228" />
            </Array>
          </mxGeometry>
        </mxCell>
        <mxCell id="SyXM5z92ipnjerzkg1In-26" value="" style="curved=1;startArrow=none;endArrow=block;exitX=0.91;exitY=1;entryX=0.5;entryY=0;rounded=0;" parent="1" source="SyXM5z92ipnjerzkg1In-6" target="SyXM5z92ipnjerzkg1In-12" edge="1">
          <mxGeometry relative="1" as="geometry">
            <Array as="points">
              <mxPoint x="1460" y="228" />
            </Array>
          </mxGeometry>
        </mxCell>
        <mxCell id="SyXM5z92ipnjerzkg1In-27" value="" style="curved=1;startArrow=none;endArrow=block;exitX=0.5;exitY=1;entryX=0;entryY=0.32;rounded=0;" parent="1" source="SyXM5z92ipnjerzkg1In-7" target="SyXM5z92ipnjerzkg1In-13" edge="1">
          <mxGeometry relative="1" as="geometry">
            <Array as="points">
              <mxPoint x="135" y="381" />
            </Array>
          </mxGeometry>
        </mxCell>
        <mxCell id="SyXM5z92ipnjerzkg1In-28" value="" style="curved=1;startArrow=none;endArrow=block;exitX=0.5;exitY=1;entryX=0.5;entryY=0;rounded=0;" parent="1" source="SyXM5z92ipnjerzkg1In-9" target="SyXM5z92ipnjerzkg1In-13" edge="1">
          <mxGeometry relative="1" as="geometry">
            <Array as="points" />
          </mxGeometry>
        </mxCell>
        <mxCell id="SyXM5z92ipnjerzkg1In-29" value="" style="curved=1;startArrow=none;endArrow=block;exitX=0.5;exitY=1;entryX=1;entryY=0.33;rounded=0;" parent="1" source="SyXM5z92ipnjerzkg1In-11" target="SyXM5z92ipnjerzkg1In-13" edge="1">
          <mxGeometry relative="1" as="geometry">
            <Array as="points">
              <mxPoint x="1212" y="381" />
            </Array>
          </mxGeometry>
        </mxCell>
        <mxCell id="SyXM5z92ipnjerzkg1In-30" value="" style="curved=1;startArrow=none;endArrow=block;exitX=0.5;exitY=1;entryX=0.5;entryY=0;rounded=0;" parent="1" source="SyXM5z92ipnjerzkg1In-13" target="SyXM5z92ipnjerzkg1In-14" edge="1">
          <mxGeometry relative="1" as="geometry">
            <Array as="points" />
          </mxGeometry>
        </mxCell>
      </root>
    </mxGraphModel>
  </diagram>
  <diagram id="QmjEoJhSWa3VX-pA63xE" name="VIDEO_PROCESSING_FLOW">
    <mxGraphModel dx="1034" dy="578" grid="1" gridSize="10" guides="1" tooltips="1" connect="1" arrows="1" fold="1" page="1" pageScale="1" pageWidth="850" pageHeight="1100" math="0" shadow="0">
      <root>
        <mxCell id="0" />
        <mxCell id="1" parent="0" />
        <mxCell id="qHz2BJds_2NlvKNBZMhg-1" value="Video Stream Input" style="whiteSpace=wrap;strokeWidth=2;fillColor=#d5e8d4;strokeColor=#82b366;" vertex="1" parent="1">
          <mxGeometry x="250" y="20" width="197" height="54" as="geometry" />
        </mxCell>
        <mxCell id="qHz2BJds_2NlvKNBZMhg-2" value="Haar Cascade Face Detection" style="whiteSpace=wrap;strokeWidth=2;fillColor=#d5e8d4;strokeColor=#82b366;" vertex="1" parent="1">
          <mxGeometry x="219" y="124" width="260" height="78" as="geometry" />
        </mxCell>
        <mxCell id="qHz2BJds_2NlvKNBZMhg-3" value="Face Missing Timeout?" style="rhombus;strokeWidth=2;whiteSpace=wrap;fillColor=#d5e8d4;strokeColor=#82b366;" vertex="1" parent="1">
          <mxGeometry x="120" y="274" width="212" height="212" as="geometry" />
        </mxCell>
        <mxCell id="qHz2BJds_2NlvKNBZMhg-4" value="Extract Face ROI" style="whiteSpace=wrap;strokeWidth=2;fillColor=#d5e8d4;strokeColor=#82b366;" vertex="1" parent="1">
          <mxGeometry x="497" y="353" width="179" height="54" as="geometry" />
        </mxCell>
        <mxCell id="qHz2BJds_2NlvKNBZMhg-5" value="Pause Interview" style="whiteSpace=wrap;strokeWidth=2;fillColor=#d5e8d4;strokeColor=#82b366;" vertex="1" parent="1">
          <mxGeometry x="20" y="559" width="173" height="54" as="geometry" />
        </mxCell>
        <mxCell id="qHz2BJds_2NlvKNBZMhg-6" value="Continue Monitoring" style="whiteSpace=wrap;strokeWidth=2;fillColor=#d5e8d4;strokeColor=#82b366;" vertex="1" parent="1">
          <mxGeometry x="243" y="559" width="205" height="54" as="geometry" />
        </mxCell>
        <mxCell id="qHz2BJds_2NlvKNBZMhg-7" value="Split Processing" style="whiteSpace=wrap;strokeWidth=2;fillColor=#d5e8d4;strokeColor=#82b366;" vertex="1" parent="1">
          <mxGeometry x="501" y="559" width="171" height="54" as="geometry" />
        </mxCell>
        <mxCell id="qHz2BJds_2NlvKNBZMhg-8" value="Eye Detection via Haar Cascade" style="whiteSpace=wrap;strokeWidth=2;fillColor=#d5e8d4;strokeColor=#82b366;" vertex="1" parent="1">
          <mxGeometry x="170" y="736" width="260" height="78" as="geometry" />
        </mxCell>
        <mxCell id="qHz2BJds_2NlvKNBZMhg-9" value="Identity Check Interval?" style="rhombus;strokeWidth=2;whiteSpace=wrap;fillColor=#d5e8d4;strokeColor=#82b366;" vertex="1" parent="1">
          <mxGeometry x="627" y="663" width="224" height="224" as="geometry" />
        </mxCell>
        <mxCell id="qHz2BJds_2NlvKNBZMhg-10" value="Posture Analysis Heuristics" style="whiteSpace=wrap;strokeWidth=2;fillColor=#d5e8d4;strokeColor=#82b366;" vertex="1" parent="1">
          <mxGeometry x="176" y="971" width="249" height="54" as="geometry" />
        </mxCell>
        <mxCell id="qHz2BJds_2NlvKNBZMhg-11" value="Update Pose Status" style="whiteSpace=wrap;strokeWidth=2;fillColor=#d5e8d4;strokeColor=#82b366;" vertex="1" parent="1">
          <mxGeometry x="202" y="1150" width="197" height="54" as="geometry" />
        </mxCell>
        <mxCell id="qHz2BJds_2NlvKNBZMhg-12" value="DeepFace.verify FaceNet Model" style="whiteSpace=wrap;strokeWidth=2;fillColor=#d5e8d4;strokeColor=#82b366;" vertex="1" parent="1">
          <mxGeometry x="475" y="959" width="260" height="78" as="geometry" />
        </mxCell>
        <mxCell id="qHz2BJds_2NlvKNBZMhg-13" value="Skip Verification" style="whiteSpace=wrap;strokeWidth=2;fillColor=#d5e8d4;strokeColor=#82b366;" vertex="1" parent="1">
          <mxGeometry x="785" y="971" width="177" height="54" as="geometry" />
        </mxCell>
        <mxCell id="qHz2BJds_2NlvKNBZMhg-14" value="Identity Matched?" style="rhombus;strokeWidth=2;whiteSpace=wrap;fillColor=#d5e8d4;strokeColor=#82b366;" vertex="1" parent="1">
          <mxGeometry x="514" y="1087" width="181" height="181" as="geometry" />
        </mxCell>
        <mxCell id="qHz2BJds_2NlvKNBZMhg-15" value="Update as Verified" style="whiteSpace=wrap;strokeWidth=2;fillColor=#d5e8d4;strokeColor=#82b366;" vertex="1" parent="1">
          <mxGeometry x="385" y="1340" width="192" height="54" as="geometry" />
        </mxCell>
        <mxCell id="qHz2BJds_2NlvKNBZMhg-16" value="Update as Mismatch" style="whiteSpace=wrap;strokeWidth=2;fillColor=#d5e8d4;strokeColor=#82b366;" vertex="1" parent="1">
          <mxGeometry x="627" y="1340" width="203" height="54" as="geometry" />
        </mxCell>
        <mxCell id="qHz2BJds_2NlvKNBZMhg-17" value="" style="curved=1;startArrow=none;endArrow=block;exitX=0.5;exitY=1;entryX=0.5;entryY=0;rounded=0;" edge="1" parent="1" source="qHz2BJds_2NlvKNBZMhg-1" target="qHz2BJds_2NlvKNBZMhg-2">
          <mxGeometry relative="1" as="geometry">
            <Array as="points" />
          </mxGeometry>
        </mxCell>
        <mxCell id="qHz2BJds_2NlvKNBZMhg-18" value="No Face" style="curved=1;startArrow=none;endArrow=block;exitX=0.25;exitY=1;entryX=0.5;entryY=0;rounded=0;" edge="1" parent="1" source="qHz2BJds_2NlvKNBZMhg-2" target="qHz2BJds_2NlvKNBZMhg-3">
          <mxGeometry relative="1" as="geometry">
            <Array as="points">
              <mxPoint x="226" y="238" />
            </Array>
          </mxGeometry>
        </mxCell>
        <mxCell id="qHz2BJds_2NlvKNBZMhg-19" value="Face Found" style="curved=1;startArrow=none;endArrow=block;exitX=0.97;exitY=1;entryX=0.5;entryY=0.01;rounded=0;" edge="1" parent="1" source="qHz2BJds_2NlvKNBZMhg-2" target="qHz2BJds_2NlvKNBZMhg-4">
          <mxGeometry relative="1" as="geometry">
            <Array as="points">
              <mxPoint x="587" y="238" />
            </Array>
          </mxGeometry>
        </mxCell>
        <mxCell id="qHz2BJds_2NlvKNBZMhg-20" value="Yes" style="curved=1;startArrow=none;endArrow=block;exitX=0.08;exitY=1;entryX=0.5;entryY=-0.01;rounded=0;" edge="1" parent="1" source="qHz2BJds_2NlvKNBZMhg-3" target="qHz2BJds_2NlvKNBZMhg-5">
          <mxGeometry relative="1" as="geometry">
            <Array as="points">
              <mxPoint x="106" y="522" />
            </Array>
          </mxGeometry>
        </mxCell>
        <mxCell id="qHz2BJds_2NlvKNBZMhg-21" value="No" style="curved=1;startArrow=none;endArrow=block;exitX=0.92;exitY=1;entryX=0.5;entryY=-0.01;rounded=0;" edge="1" parent="1" source="qHz2BJds_2NlvKNBZMhg-3" target="qHz2BJds_2NlvKNBZMhg-6">
          <mxGeometry relative="1" as="geometry">
            <Array as="points">
              <mxPoint x="345" y="522" />
            </Array>
          </mxGeometry>
        </mxCell>
        <mxCell id="qHz2BJds_2NlvKNBZMhg-22" value="" style="curved=1;startArrow=none;endArrow=block;exitX=0.5;exitY=1.01;entryX=0.5;entryY=-0.01;rounded=0;" edge="1" parent="1" source="qHz2BJds_2NlvKNBZMhg-4" target="qHz2BJds_2NlvKNBZMhg-7">
          <mxGeometry relative="1" as="geometry">
            <Array as="points" />
          </mxGeometry>
        </mxCell>
        <mxCell id="qHz2BJds_2NlvKNBZMhg-23" value="" style="curved=1;startArrow=none;endArrow=block;exitX=0;exitY=0.78;entryX=0.5;entryY=-0.01;rounded=0;" edge="1" parent="1" source="qHz2BJds_2NlvKNBZMhg-7" target="qHz2BJds_2NlvKNBZMhg-8">
          <mxGeometry relative="1" as="geometry">
            <Array as="points">
              <mxPoint x="300" y="638" />
            </Array>
          </mxGeometry>
        </mxCell>
        <mxCell id="qHz2BJds_2NlvKNBZMhg-24" value="" style="curved=1;startArrow=none;endArrow=block;exitX=0.96;exitY=0.99;entryX=0.5;entryY=0;rounded=0;" edge="1" parent="1" source="qHz2BJds_2NlvKNBZMhg-7" target="qHz2BJds_2NlvKNBZMhg-9">
          <mxGeometry relative="1" as="geometry">
            <Array as="points">
              <mxPoint x="739" y="638" />
            </Array>
          </mxGeometry>
        </mxCell>
        <mxCell id="qHz2BJds_2NlvKNBZMhg-25" value="" style="curved=1;startArrow=none;endArrow=block;exitX=0.5;exitY=0.99;entryX=0.5;entryY=0;rounded=0;" edge="1" parent="1" source="qHz2BJds_2NlvKNBZMhg-8" target="qHz2BJds_2NlvKNBZMhg-10">
          <mxGeometry relative="1" as="geometry">
            <Array as="points" />
          </mxGeometry>
        </mxCell>
        <mxCell id="qHz2BJds_2NlvKNBZMhg-26" value="" style="curved=1;startArrow=none;endArrow=block;exitX=0.5;exitY=1;entryX=0.5;entryY=0.01;rounded=0;" edge="1" parent="1" source="qHz2BJds_2NlvKNBZMhg-10" target="qHz2BJds_2NlvKNBZMhg-11">
          <mxGeometry relative="1" as="geometry">
            <Array as="points" />
          </mxGeometry>
        </mxCell>
        <mxCell id="qHz2BJds_2NlvKNBZMhg-27" value="Yes" style="curved=1;startArrow=none;endArrow=block;exitX=0.05;exitY=1;entryX=0.5;entryY=0;rounded=0;" edge="1" parent="1" source="qHz2BJds_2NlvKNBZMhg-9" target="qHz2BJds_2NlvKNBZMhg-12">
          <mxGeometry relative="1" as="geometry">
            <Array as="points">
              <mxPoint x="605" y="923" />
            </Array>
          </mxGeometry>
        </mxCell>
        <mxCell id="qHz2BJds_2NlvKNBZMhg-28" value="No" style="curved=1;startArrow=none;endArrow=block;exitX=0.95;exitY=1;entryX=0.5;entryY=0;rounded=0;" edge="1" parent="1" source="qHz2BJds_2NlvKNBZMhg-9" target="qHz2BJds_2NlvKNBZMhg-13">
          <mxGeometry relative="1" as="geometry">
            <Array as="points">
              <mxPoint x="873" y="923" />
            </Array>
          </mxGeometry>
        </mxCell>
        <mxCell id="qHz2BJds_2NlvKNBZMhg-29" value="" style="curved=1;startArrow=none;endArrow=block;exitX=0.5;exitY=1;entryX=0.5;entryY=0;rounded=0;" edge="1" parent="1" source="qHz2BJds_2NlvKNBZMhg-12" target="qHz2BJds_2NlvKNBZMhg-14">
          <mxGeometry relative="1" as="geometry">
            <Array as="points" />
          </mxGeometry>
        </mxCell>
        <mxCell id="qHz2BJds_2NlvKNBZMhg-30" value="Yes" style="curved=1;startArrow=none;endArrow=block;exitX=0.01;exitY=1;entryX=0.5;entryY=0.01;rounded=0;" edge="1" parent="1" source="qHz2BJds_2NlvKNBZMhg-14" target="qHz2BJds_2NlvKNBZMhg-15">
          <mxGeometry relative="1" as="geometry">
            <Array as="points">
              <mxPoint x="481" y="1304" />
            </Array>
          </mxGeometry>
        </mxCell>
        <mxCell id="qHz2BJds_2NlvKNBZMhg-31" value="No" style="curved=1;startArrow=none;endArrow=block;exitX=0.99;exitY=1;entryX=0.5;entryY=0.01;rounded=0;" edge="1" parent="1" source="qHz2BJds_2NlvKNBZMhg-14" target="qHz2BJds_2NlvKNBZMhg-16">
          <mxGeometry relative="1" as="geometry">
            <Array as="points">
              <mxPoint x="729" y="1304" />
            </Array>
          </mxGeometry>
        </mxCell>
      </root>
    </mxGraphModel>
  </diagram>
</mxfile>
